<?xml version="1.0" encoding="UTF-8" standalone="no"?>
<!DOCTYPE svg PUBLIC "-//W3C//DTD SVG 1.1//EN"
 "http://www.w3.org/Graphics/SVG/1.1/DTD/svg11.dtd">
<!-- Generated by graphviz version 14.1.1 (20251213.1925)
 -->
<!-- Title: AsyncFIFO Pages: 1 -->
<svg width="762pt" height="550pt"
 viewBox="0.00 0.00 762.00 550.00" xmlns="http://www.w3.org/2000/svg" xmlns:xlink="http://www.w3.org/1999/xlink">
<g id="graph0" class="graph" transform="scale(1 1) rotate(0) translate(4 546)">
<title>AsyncFIFO</title>
<polygon fill="#1a1a2e" stroke="none" points="-4,4 -4,-546 758.04,-546 758.04,4 -4,4"/>
<g id="clust1" class="cluster">
<title>cluster_wclk</title>
<path fill="#1a1a2e" stroke="#e94560" stroke-dasharray="5,2" d="M118.28,-184C118.28,-184 411.53,-184 411.53,-184 417.53,-184 423.53,-190 423.53,-196 423.53,-196 423.53,-283 423.53,-283 423.53,-289 417.53,-295 411.53,-295 411.53,-295 118.28,-295 118.28,-295 112.28,-295 106.28,-289 106.28,-283 106.28,-283 106.28,-196 106.28,-196 106.28,-190 112.28,-184 118.28,-184"/>
<text xml:space="preserve" text-anchor="middle" x="264.9" y="-277.7" font-family="Times,serif" font-size="14.00" fill="#e8e8e8">Write Clock Domain (wclk)</text>
</g>
<g id="clust2" class="cluster">
<title>cluster_rclk</title>
<path fill="#1a1a2e" stroke="#00d9ff" stroke-dasharray="5,2" d="M118.28,-364C118.28,-364 411.53,-364 411.53,-364 417.53,-364 423.53,-370 423.53,-376 423.53,-376 423.53,-463 423.53,-463 423.53,-469 417.53,-475 411.53,-475 411.53,-475 118.28,-475 118.28,-475 112.28,-475 106.28,-469 106.28,-463 106.28,-463 106.28,-376 106.28,-376 106.28,-370 112.28,-364 118.28,-364"/>
<text xml:space="preserve" text-anchor="middle" x="264.9" y="-457.7" font-family="Times,serif" font-size="14.00" fill="#e8e8e8">Read Clock Domain (rclk)</text>
</g>
<g id="clust3" class="cluster">
<title>cluster_mem</title>
<path fill="#1a1a2e" stroke="#ffd700" d="M498.28,-85C498.28,-85 618.78,-85 618.78,-85 624.78,-85 630.78,-91 630.78,-97 630.78,-97 630.78,-170 630.78,-170 630.78,-176 624.78,-182 618.78,-182 618.78,-182 498.28,-182 498.28,-182 492.28,-182 486.28,-176 486.28,-170 486.28,-170 486.28,-97 486.28,-97 486.28,-91 492.28,-85 498.28,-85"/>
<text xml:space="preserve" text-anchor="middle" x="558.53" y="-164.7" font-family="Times,serif" font-size="14.00" fill="#e8e8e8">Dual&#45;Port Memory</text>
</g>
<!-- wptr_full -->
<g id="node1" class="node">
<title>wptr_full</title>
<path fill="#0f3460" stroke="#4a4a6a" d="M403.53,-248C403.53,-248 321.53,-248 321.53,-248 315.53,-248 309.53,-242 309.53,-236 309.53,-236 309.53,-204 309.53,-204 309.53,-198 315.53,-192 321.53,-192 321.53,-192 403.53,-192 403.53,-192 409.53,-192 415.53,-198 415.53,-204 415.53,-204 415.53,-236 415.53,-236 415.53,-242 409.53,-248 403.53,-248"/>
<text xml:space="preserve" text-anchor="middle" x="362.53" y="-233.55" font-family="Helvetica,sans-Serif" font-size="11.00" fill="#e8e8e8">wptr_full</text>
<text xml:space="preserve" text-anchor="middle" x="362.53" y="-221.55" font-family="Helvetica,sans-Serif" font-size="11.00" fill="#e8e8e8">━━━━━━━━</text>
<text xml:space="preserve" text-anchor="middle" x="362.53" y="-209.55" font-family="Helvetica,sans-Serif" font-size="11.00" fill="#e8e8e8">Write Pointer</text>
<text xml:space="preserve" text-anchor="middle" x="362.53" y="-197.55" font-family="Helvetica,sans-Serif" font-size="11.00" fill="#e8e8e8">&amp; Full Flag</text>
</g>
<!-- sync_w2r -->
<g id="node4" class="node">
<title>sync_w2r</title>
<path fill="#533483" stroke="#4a4a6a" d="M208.28,-442.12C208.28,-442.12 126.28,-442.12 126.28,-442.12 120.28,-442.12 114.28,-436.12 114.28,-430.12 114.28,-430.12 114.28,-383.88 114.28,-383.88 114.28,-377.88 120.28,-371.88 126.28,-371.88 126.28,-371.88 208.28,-371.88 208.28,-371.88 214.28,-371.88 220.28,-377.88 220.28,-383.88 220.28,-383.88 220.28,-430.12 220.28,-430.12 220.28,-436.12 214.28,-442.12 208.28,-442.12"/>
<text xml:space="preserve" text-anchor="middle" x="167.28" y="-427.68" font-family="Helvetica,sans-Serif" font-size="11.00" fill="#e8e8e8">two_ff_sync</text>
<text xml:space="preserve" text-anchor="middle" x="167.28" y="-415.68" font-family="Helvetica,sans-Serif" font-size="11.00" fill="#e8e8e8">(sync_w2r)</text>
<text xml:space="preserve" text-anchor="middle" x="167.28" y="-403.68" font-family="Helvetica,sans-Serif" font-size="11.00" fill="#e8e8e8">━━━━━━━━</text>
<text xml:space="preserve" text-anchor="middle" x="167.28" y="-391.68" font-family="Helvetica,sans-Serif" font-size="11.00" fill="#e8e8e8">Write→Read</text>
<text xml:space="preserve" text-anchor="middle" x="167.28" y="-377.43" font-family="Helvetica,sans-Serif" font-size="11.00" fill="#e8e8e8">Synchronizer</text>
</g>
<!-- wptr_full&#45;&gt;sync_w2r -->
<g id="edge16" class="edge">
<title>wptr_full&#45;&gt;sync_w2r</title>
<path fill="none" stroke="#00ff88" d="M343.07,-248.1C329.87,-267.16 311.05,-292.35 291.53,-312 272.78,-330.86 250.23,-349.27 229.57,-364.77"/>
<polygon fill="#00ff88" stroke="#00ff88" points="227.71,-361.79 221.76,-370.56 231.88,-367.42 227.71,-361.79"/>
<text xml:space="preserve" text-anchor="middle" x="264.9" y="-367.68" font-family="Helvetica,sans-Serif" font-size="9.00" fill="#8899aa">wptr[4:0]</text>
<text xml:space="preserve" text-anchor="middle" x="264.9" y="-357.93" font-family="Helvetica,sans-Serif" font-size="9.00" fill="#8899aa">(gray)</text>
</g>
<!-- fifomem -->
<g id="node5" class="node">
<title>fifomem</title>
<path fill="#1a5276" stroke="#4a4a6a" d="M610.78,-149C610.78,-149 506.28,-149 506.28,-149 500.28,-149 494.28,-143 494.28,-137 494.28,-137 494.28,-105 494.28,-105 494.28,-99 500.28,-93 506.28,-93 506.28,-93 610.78,-93 610.78,-93 616.78,-93 622.78,-99 622.78,-105 622.78,-105 622.78,-137 622.78,-137 622.78,-143 616.78,-149 610.78,-149"/>
<text xml:space="preserve" text-anchor="middle" x="558.53" y="-134.55" font-family="Helvetica,sans-Serif" font-size="11.00" fill="#e8e8e8">FIFO_memory</text>
<text xml:space="preserve" text-anchor="middle" x="558.53" y="-122.55" font-family="Helvetica,sans-Serif" font-size="11.00" fill="#e8e8e8">━━━━━━━━━━</text>
<text xml:space="preserve" text-anchor="middle" x="558.53" y="-110.55" font-family="Helvetica,sans-Serif" font-size="11.00" fill="#e8e8e8">Dual&#45;Port RAM</text>
<text xml:space="preserve" text-anchor="middle" x="558.53" y="-98.55" font-family="Helvetica,sans-Serif" font-size="11.00" fill="#e8e8e8">16 x 8&#45;bit</text>
</g>
<!-- wptr_full&#45;&gt;fifomem -->
<g id="edge14" class="edge">
<title>wptr_full&#45;&gt;fifomem</title>
<path fill="none" stroke="#ffd700" d="M386.48,-191.65C399.03,-177.88 415.65,-162.2 433.53,-152.25 448.65,-143.83 466.05,-137.65 482.95,-133.11"/>
<polygon fill="#ffd700" stroke="#ffd700" points="483.63,-136.55 492.48,-130.73 481.93,-129.76 483.63,-136.55"/>
<text xml:space="preserve" text-anchor="middle" x="454.9" y="-153.45" font-family="Helvetica,sans-Serif" font-size="9.00" fill="#8899aa">waddr[3:0]</text>
</g>
<!-- wptr_full&#45;&gt;fifomem -->
<g id="edge15" class="edge">
<title>wptr_full&#45;&gt;fifomem</title>
<path fill="none" stroke="#e94560" stroke-dasharray="5,2" d="M416.03,-193.21C439.4,-181.28 467.18,-167.11 491.91,-154.49"/>
<polygon fill="#e94560" stroke="#e94560" points="493.27,-157.72 500.59,-150.06 490.09,-151.49 493.27,-157.72"/>
<text xml:space="preserve" text-anchor="middle" x="454.9" y="-183.48" font-family="Helvetica,sans-Serif" font-size="9.00" fill="#8899aa">wfull</text>
</g>
<!-- wfull -->
<g id="node14" class="node">
<title>wfull</title>
<ellipse fill="#1d8348" stroke="#4a4a6a" cx="558.53" cy="-220" rx="27" ry="18"/>
<text xml:space="preserve" text-anchor="middle" x="558.53" y="-215.55" font-family="Helvetica,sans-Serif" font-size="11.00" fill="#e8e8e8">wfull</text>
</g>
<!-- wptr_full&#45;&gt;wfull -->
<g id="edge22" class="edge">
<title>wptr_full&#45;&gt;wfull</title>
<path fill="none" stroke="#4a90d9" d="M416.03,-220C448.77,-220 490.15,-220 519.69,-220"/>
<polygon fill="#4a90d9" stroke="#4a90d9" points="519.66,-223.5 529.66,-220 519.66,-216.5 519.66,-223.5"/>
<text xml:space="preserve" text-anchor="middle" x="454.9" y="-221.2" font-family="Helvetica,sans-Serif" font-size="9.00" fill="#8899aa">wfull</text>
</g>
<!-- sync_r2w -->
<g id="node2" class="node">
<title>sync_r2w</title>
<path fill="#533483" stroke="#4a4a6a" d="M208.28,-262.12C208.28,-262.12 126.28,-262.12 126.28,-262.12 120.28,-262.12 114.28,-256.12 114.28,-250.12 114.28,-250.12 114.28,-203.88 114.28,-203.88 114.28,-197.88 120.28,-191.88 126.28,-191.88 126.28,-191.88 208.28,-191.88 208.28,-191.88 214.28,-191.88 220.28,-197.88 220.28,-203.88 220.28,-203.88 220.28,-250.12 220.28,-250.12 220.28,-256.12 214.28,-262.12 208.28,-262.12"/>
<text xml:space="preserve" text-anchor="middle" x="167.28" y="-247.68" font-family="Helvetica,sans-Serif" font-size="11.00" fill="#e8e8e8">two_ff_sync</text>
<text xml:space="preserve" text-anchor="middle" x="167.28" y="-235.68" font-family="Helvetica,sans-Serif" font-size="11.00" fill="#e8e8e8">(sync_r2w)</text>
<text xml:space="preserve" text-anchor="middle" x="167.28" y="-223.68" font-family="Helvetica,sans-Serif" font-size="11.00" fill="#e8e8e8">━━━━━━━━</text>
<text xml:space="preserve" text-anchor="middle" x="167.28" y="-211.68" font-family="Helvetica,sans-Serif" font-size="11.00" fill="#e8e8e8">Read→Write</text>
<text xml:space="preserve" text-anchor="middle" x="167.28" y="-197.43" font-family="Helvetica,sans-Serif" font-size="11.00" fill="#e8e8e8">Synchronizer</text>
</g>
<!-- sync_r2w&#45;&gt;wptr_full -->
<g id="edge19" class="edge">
<title>sync_r2w&#45;&gt;wptr_full</title>
<path fill="none" stroke="#ff6b6b" stroke-width="2" d="M220.58,-225.11C244.42,-224.24 272.87,-223.21 297.94,-222.3"/>
<polygon fill="#ff6b6b" stroke="#ff6b6b" stroke-width="2" points="296.3,-225.87 306.17,-222.01 296.05,-218.87 296.3,-225.87"/>
<text xml:space="preserve" text-anchor="middle" x="264.9" y="-225.53" font-family="Helvetica,sans-Serif" font-size="9.00" fill="#8899aa">wq2_rptr[4:0]</text>
</g>
<!-- rptr_empty -->
<g id="node3" class="node">
<title>rptr_empty</title>
<path fill="#0f3460" stroke="#4a4a6a" d="M403.53,-435C403.53,-435 321.53,-435 321.53,-435 315.53,-435 309.53,-429 309.53,-423 309.53,-423 309.53,-391 309.53,-391 309.53,-385 315.53,-379 321.53,-379 321.53,-379 403.53,-379 403.53,-379 409.53,-379 415.53,-385 415.53,-391 415.53,-391 415.53,-423 415.53,-423 415.53,-429 409.53,-435 403.53,-435"/>
<text xml:space="preserve" text-anchor="middle" x="362.53" y="-420.55" font-family="Helvetica,sans-Serif" font-size="11.00" fill="#e8e8e8">rptr_empty</text>
<text xml:space="preserve" text-anchor="middle" x="362.53" y="-408.55" font-family="Helvetica,sans-Serif" font-size="11.00" fill="#e8e8e8">━━━━━━━━</text>
<text xml:space="preserve" text-anchor="middle" x="362.53" y="-396.55" font-family="Helvetica,sans-Serif" font-size="11.00" fill="#e8e8e8">Read Pointer</text>
<text xml:space="preserve" text-anchor="middle" x="362.53" y="-384.55" font-family="Helvetica,sans-Serif" font-size="11.00" fill="#e8e8e8">&amp; Empty Flag</text>
</g>
<!-- rptr_empty&#45;&gt;sync_r2w -->
<g id="edge18" class="edge">
<title>rptr_empty&#45;&gt;sync_r2w</title>
<path fill="none" stroke="#00ff88" d="M344.81,-378.8C331.87,-358.4 312.64,-330.95 291.53,-310.5 273.34,-292.88 251.02,-276.52 230.39,-263.03"/>
<polygon fill="#00ff88" stroke="#00ff88" points="232.32,-260.11 222.02,-257.66 228.55,-266.01 232.32,-260.11"/>
<text xml:space="preserve" text-anchor="middle" x="264.9" y="-321.45" font-family="Helvetica,sans-Serif" font-size="9.00" fill="#8899aa">rptr[4:0]</text>
<text xml:space="preserve" text-anchor="middle" x="264.9" y="-311.7" font-family="Helvetica,sans-Serif" font-size="9.00" fill="#8899aa">(gray)</text>
</g>
<!-- rptr_empty&#45;&gt;fifomem -->
<g id="edge17" class="edge">
<title>rptr_empty&#45;&gt;fifomem</title>
<path fill="none" stroke="#ffd700" d="M386.31,-378.73C411.77,-345.83 452.5,-288.95 476.28,-234 483.73,-216.79 477.13,-209.37 486.28,-193 493.53,-180.03 503.75,-167.79 514.19,-157.19"/>
<polygon fill="#ffd700" stroke="#ffd700" points="516.36,-159.97 521.09,-150.49 511.48,-154.95 516.36,-159.97"/>
<text xml:space="preserve" text-anchor="middle" x="454.9" y="-309.71" font-family="Helvetica,sans-Serif" font-size="9.00" fill="#8899aa">raddr[3:0]</text>
</g>
<!-- rempty -->
<g id="node15" class="node">
<title>rempty</title>
<ellipse fill="#1d8348" stroke="#4a4a6a" cx="558.53" cy="-407" rx="29.47" ry="18"/>
<text xml:space="preserve" text-anchor="middle" x="558.53" y="-402.55" font-family="Helvetica,sans-Serif" font-size="11.00" fill="#e8e8e8">rempty</text>
</g>
<!-- rptr_empty&#45;&gt;rempty -->
<g id="edge23" class="edge">
<title>rptr_empty&#45;&gt;rempty</title>
<path fill="none" stroke="#4a90d9" d="M416.03,-407C447.88,-407 487.92,-407 517.26,-407"/>
<polygon fill="#4a90d9" stroke="#4a90d9" points="517.22,-410.5 527.22,-407 517.22,-403.5 517.22,-410.5"/>
<text xml:space="preserve" text-anchor="middle" x="454.9" y="-408.2" font-family="Helvetica,sans-Serif" font-size="9.00" fill="#8899aa">rempty</text>
</g>
<!-- sync_w2r&#45;&gt;rptr_empty -->
<g id="edge20" class="edge">
<title>sync_w2r&#45;&gt;rptr_empty</title>
<path fill="none" stroke="#ff6b6b" stroke-width="2" d="M220.58,-407C244.42,-407 272.87,-407 297.94,-407"/>
<polygon fill="#ff6b6b" stroke="#ff6b6b" stroke-width="2" points="296.16,-410.5 306.16,-407 296.16,-403.5 296.16,-410.5"/>
<text xml:space="preserve" text-anchor="middle" x="264.9" y="-408.2" font-family="Helvetica,sans-Serif" font-size="9.00" fill="#8899aa">rq2_wptr[4:0]</text>
</g>
<!-- rdata -->
<g id="node13" class="node">
<title>rdata</title>
<ellipse fill="#1d8348" stroke="#4a4a6a" cx="716.91" cy="-121" rx="37.13" ry="18"/>
<text xml:space="preserve" text-anchor="middle" x="716.91" y="-116.55" font-family="Helvetica,sans-Serif" font-size="11.00" fill="#e8e8e8">rdata[7:0]</text>
</g>
<!-- fifomem&#45;&gt;rdata -->
<g id="edge21" class="edge">
<title>fifomem&#45;&gt;rdata</title>
<path fill="none" stroke="#4a90d9" d="M623.14,-121C638.07,-121 653.73,-121 667.85,-121"/>
<polygon fill="#4a90d9" stroke="#4a90d9" points="667.78,-124.5 677.78,-121 667.78,-117.5 667.78,-124.5"/>
<text xml:space="preserve" text-anchor="middle" x="651.28" y="-122.2" font-family="Helvetica,sans-Serif" font-size="9.00" fill="#8899aa">rdata</text>
</g>
<!-- wdata -->
<g id="node6" class="node">
<title>wdata</title>
<ellipse fill="#2e4053" stroke="#4a4a6a" cx="362.53" cy="-18" rx="39.84" ry="18"/>
<text xml:space="preserve" text-anchor="middle" x="362.53" y="-13.55" font-family="Helvetica,sans-Serif" font-size="11.00" fill="#e8e8e8">wdata[7:0]</text>
</g>
<!-- wdata&#45;&gt;fifomem -->
<g id="edge1" class="edge">
<title>wdata&#45;&gt;fifomem</title>
<path fill="none" stroke="#4a90d9" d="M402.46,-20.08C425.1,-22.61 453.55,-28.17 476.28,-40.25 496.43,-50.96 514.84,-68.29 529.02,-84.16"/>
<polygon fill="#4a90d9" stroke="#4a90d9" points="526.28,-86.34 535.46,-91.63 531.58,-81.77 526.28,-86.34"/>
<text xml:space="preserve" text-anchor="middle" x="454.9" y="-41.45" font-family="Helvetica,sans-Serif" font-size="9.00" fill="#8899aa">wdata</text>
</g>
<!-- wclk_in -->
<g id="node7" class="node">
<title>wclk_in</title>
<ellipse fill="#2e4053" stroke="#4a4a6a" cx="29.01" cy="-164" rx="27" ry="18"/>
<text xml:space="preserve" text-anchor="middle" x="29.01" y="-159.55" font-family="Helvetica,sans-Serif" font-size="11.00" fill="#e8e8e8">wclk</text>
</g>
<!-- wclk_in&#45;&gt;wptr_full -->
<g id="edge4" class="edge">
<title>wclk_in&#45;&gt;wptr_full</title>
<path fill="none" stroke="#4a90d9" d="M56.43,-163.04C93.42,-162.21 162.57,-162.5 220.28,-173.25 246.37,-178.11 274.28,-186.6 298.34,-195.02"/>
<polygon fill="#4a90d9" stroke="#4a90d9" points="297.08,-198.29 307.67,-198.37 299.44,-191.7 297.08,-198.29"/>
<text xml:space="preserve" text-anchor="middle" x="167.28" y="-174.45" font-family="Helvetica,sans-Serif" font-size="9.00" fill="#8899aa">wclk</text>
</g>
<!-- wclk_in&#45;&gt;sync_r2w -->
<g id="edge6" class="edge">
<title>wclk_in&#45;&gt;sync_r2w</title>
<path fill="none" stroke="#4a90d9" d="M51.91,-174.12C66,-180.64 85.09,-189.46 103.63,-198.04"/>
<polygon fill="#4a90d9" stroke="#4a90d9" points="101.92,-201.1 112.47,-202.12 104.86,-194.75 101.92,-201.1"/>
<text xml:space="preserve" text-anchor="middle" x="86.15" y="-194.81" font-family="Helvetica,sans-Serif" font-size="9.00" fill="#8899aa">clk</text>
</g>
<!-- wclk_in&#45;&gt;fifomem -->
<g id="edge5" class="edge">
<title>wclk_in&#45;&gt;fifomem</title>
<path fill="none" stroke="#4a90d9" d="M39.85,-147.13C52.4,-127.47 76.14,-96.02 106.28,-83 230.08,-29.52 390.56,-64.77 482.99,-93.85"/>
<polygon fill="#4a90d9" stroke="#4a90d9" points="481.89,-97.17 492.48,-96.9 484.03,-90.51 481.89,-97.17"/>
<text xml:space="preserve" text-anchor="middle" x="264.9" y="-57.47" font-family="Helvetica,sans-Serif" font-size="9.00" fill="#8899aa">wclk</text>
</g>
<!-- wrst_n -->
<g id="node8" class="node">
<title>wrst_n</title>
<ellipse fill="#2e4053" stroke="#4a4a6a" cx="29.01" cy="-279" rx="29.01" ry="18"/>
<text xml:space="preserve" text-anchor="middle" x="29.01" y="-274.55" font-family="Helvetica,sans-Serif" font-size="11.00" fill="#e8e8e8">wrst_n</text>
</g>
<!-- wrst_n&#45;&gt;wptr_full -->
<g id="edge7" class="edge">
<title>wrst_n&#45;&gt;wptr_full</title>
<path fill="none" stroke="#4a90d9" d="M56.39,-285.87C104.9,-297.16 210.68,-315.39 291.53,-284 306.6,-278.15 320.4,-267.37 331.7,-256.31"/>
<polygon fill="#4a90d9" stroke="#4a90d9" points="333.98,-258.99 338.41,-249.36 328.95,-254.12 333.98,-258.99"/>
<text xml:space="preserve" text-anchor="middle" x="167.28" y="-302.68" font-family="Helvetica,sans-Serif" font-size="9.00" fill="#8899aa">wrst_n</text>
</g>
<!-- wrst_n&#45;&gt;sync_r2w -->
<g id="edge8" class="edge">
<title>wrst_n&#45;&gt;sync_r2w</title>
<path fill="none" stroke="#4a90d9" d="M54.38,-269.7C68.07,-264.48 85.85,-257.69 103.2,-251.07"/>
<polygon fill="#4a90d9" stroke="#4a90d9" points="104.39,-254.36 112.49,-247.53 101.9,-247.82 104.39,-254.36"/>
<text xml:space="preserve" text-anchor="middle" x="86.15" y="-261.9" font-family="Helvetica,sans-Serif" font-size="9.00" fill="#8899aa">rst_n</text>
</g>
<!-- winc -->
<g id="node9" class="node">
<title>winc</title>
<ellipse fill="#2e4053" stroke="#4a4a6a" cx="167.28" cy="-110" rx="27" ry="18"/>
<text xml:space="preserve" text-anchor="middle" x="167.28" y="-105.55" font-family="Helvetica,sans-Serif" font-size="11.00" fill="#e8e8e8">winc</text>
</g>
<!-- winc&#45;&gt;wptr_full -->
<g id="edge2" class="edge">
<title>winc&#45;&gt;wptr_full</title>
<path fill="none" stroke="#4a90d9" d="M193.99,-112.95C220.13,-116.88 261.01,-125.62 291.53,-144.25 307.98,-154.29 322.98,-169.28 334.83,-183.29"/>
<polygon fill="#4a90d9" stroke="#4a90d9" points="331.8,-185.11 340.83,-190.65 337.23,-180.69 331.8,-185.11"/>
<text xml:space="preserve" text-anchor="middle" x="264.9" y="-145.45" font-family="Helvetica,sans-Serif" font-size="9.00" fill="#8899aa">winc</text>
</g>
<!-- winc&#45;&gt;fifomem -->
<g id="edge3" class="edge">
<title>winc&#45;&gt;fifomem</title>
<path fill="none" stroke="#4a90d9" d="M194.73,-110.75C253.09,-112.4 394.68,-116.4 482.72,-118.89"/>
<polygon fill="#4a90d9" stroke="#4a90d9" points="482.37,-122.38 492.46,-119.16 482.57,-115.38 482.37,-122.38"/>
<text xml:space="preserve" text-anchor="middle" x="362.53" y="-118.33" font-family="Helvetica,sans-Serif" font-size="9.00" fill="#8899aa">wclk_en</text>
</g>
<!-- rclk_in -->
<g id="node10" class="node">
<title>rclk_in</title>
<ellipse fill="#2e4053" stroke="#4a4a6a" cx="29.01" cy="-386" rx="27" ry="18"/>
<text xml:space="preserve" text-anchor="middle" x="29.01" y="-381.55" font-family="Helvetica,sans-Serif" font-size="11.00" fill="#e8e8e8">rclk</text>
</g>
<!-- rclk_in&#45;&gt;rptr_empty -->
<g id="edge10" class="edge">
<title>rclk_in&#45;&gt;rptr_empty</title>
<path fill="none" stroke="#4a90d9" d="M50.31,-374.59C65.26,-366.86 86.38,-357.34 106.28,-353.25 186.95,-336.66 213.85,-330.64 291.53,-358 301.09,-361.37 310.52,-366.42 319.23,-372.03"/>
<polygon fill="#4a90d9" stroke="#4a90d9" points="317.24,-374.91 327.46,-377.68 321.2,-369.14 317.24,-374.91"/>
<text xml:space="preserve" text-anchor="middle" x="167.28" y="-354.45" font-family="Helvetica,sans-Serif" font-size="9.00" fill="#8899aa">rclk</text>
</g>
<!-- rclk_in&#45;&gt;sync_w2r -->
<g id="edge11" class="edge">
<title>rclk_in&#45;&gt;sync_w2r</title>
<path fill="none" stroke="#4a90d9" d="M55.64,-389.95C69.12,-392.03 86.28,-394.67 103.04,-397.25"/>
<polygon fill="#4a90d9" stroke="#4a90d9" points="102.04,-400.64 112.46,-398.71 103.11,-393.72 102.04,-400.64"/>
<text xml:space="preserve" text-anchor="middle" x="86.15" y="-397.07" font-family="Helvetica,sans-Serif" font-size="9.00" fill="#8899aa">clk</text>
</g>
<!-- rrst_n -->
<g id="node11" class="node">
<title>rrst_n</title>
<ellipse fill="#2e4053" stroke="#4a4a6a" cx="29.01" cy="-442" rx="27" ry="18"/>
<text xml:space="preserve" text-anchor="middle" x="29.01" y="-437.55" font-family="Helvetica,sans-Serif" font-size="11.00" fill="#e8e8e8">rrst_n</text>
</g>
<!-- rrst_n&#45;&gt;rptr_empty -->
<g id="edge12" class="edge">
<title>rrst_n&#45;&gt;rptr_empty</title>
<path fill="none" stroke="#4a90d9" d="M55.72,-445.8C70.47,-447.78 89.38,-450.01 106.28,-451 156.86,-453.97 170.19,-458.62 220.28,-451 246.37,-447.03 274.28,-439.16 298.34,-431.15"/>
<polygon fill="#4a90d9" stroke="#4a90d9" points="299.33,-434.51 307.67,-427.97 297.07,-427.89 299.33,-434.51"/>
<text xml:space="preserve" text-anchor="middle" x="167.28" y="-456.35" font-family="Helvetica,sans-Serif" font-size="9.00" fill="#8899aa">rrst_n</text>
</g>
<!-- rrst_n&#45;&gt;sync_w2r -->
<g id="edge13" class="edge">
<title>rrst_n&#45;&gt;sync_w2r</title>
<path fill="none" stroke="#4a90d9" d="M54.69,-435.66C68.22,-432.19 85.67,-427.71 102.73,-423.32"/>
<polygon fill="#4a90d9" stroke="#4a90d9" points="103.56,-426.72 112.38,-420.85 101.82,-419.94 103.56,-426.72"/>
<text xml:space="preserve" text-anchor="middle" x="86.15" y="-430.88" font-family="Helvetica,sans-Serif" font-size="9.00" fill="#8899aa">rst_n</text>
</g>
<!-- rinc -->
<g id="node12" class="node">
<title>rinc</title>
<ellipse fill="#2e4053" stroke="#4a4a6a" cx="167.28" cy="-524" rx="27" ry="18"/>
<text xml:space="preserve" text-anchor="middle" x="167.28" y="-519.55" font-family="Helvetica,sans-Serif" font-size="11.00" fill="#e8e8e8">rinc</text>
</g>
<!-- rinc&#45;&gt;rptr_empty -->
<g id="edge9" class="edge">
<title>rinc&#45;&gt;rptr_empty</title>
<path fill="none" stroke="#4a90d9" d="M194.2,-521.96C220.51,-518.87 261.52,-511.15 291.53,-492 310.29,-480.03 326.47,-461.36 338.53,-444.57"/>
<polygon fill="#4a90d9" stroke="#4a90d9" points="341.14,-446.95 343.94,-436.73 335.38,-442.97 341.14,-446.95"/>
<text xml:space="preserve" text-anchor="middle" x="264.9" y="-514.45" font-family="Helvetica,sans-Serif" font-size="9.00" fill="#8899aa">rinc</text>
</g>
</g>
</svg>
